<?xml version="1.0" encoding="utf-8"?>
<!-- Generator: Adobe Illustrator 19.0.1, SVG Export Plug-In . SVG Version: 6.00 Build 0)  -->
<svg version="1.1" id="Capa_1" xmlns="http://www.w3.org/2000/svg" xmlns:xlink="http://www.w3.org/1999/xlink" x="0px" y="0px"
	 viewBox="0 0 200 48" style="enable-background:new 0 0 200 48;" xml:space="preserve">
<style type="text/css">
	.st0{fill:#FF9100;}
	.st1{fill:#353535;}
</style>
<g>
	<g>
		<g>
			<path class="st0" d="M16.7,29.9c-0.3,0.1-0.8,0.2-1.5,0.3c-0.7,0.1-1.4,0.1-2,0.1c-1.4,0-2.4-0.2-3.1-0.7c-0.7-0.5-1-1.4-1-2.9
				v-6.1c-0.7-1.1-1.6-2.3-2.4-3.7c-0.9-1.3-1.7-2.7-2.6-4.1C3.2,11.4,2.5,10,1.8,8.6C1,7.3,0.4,6,0,4.9c0.4-0.5,0.9-1,1.6-1.5
				C2.3,3,3.1,2.7,4.1,2.7c1.2,0,2.1,0.2,2.8,0.7C7.7,3.9,8.4,4.8,9,6.2l3.7,7.5H13c0.4-0.9,0.8-1.8,1.1-2.5
				c0.3-0.8,0.6-1.5,0.9-2.3c0.3-0.8,0.6-1.6,0.9-2.4c0.3-0.8,0.7-1.8,1.1-2.8c0.5-0.3,1.1-0.5,1.8-0.6c0.7-0.1,1.3-0.2,1.9-0.2
				c1,0,1.9,0.3,2.7,0.8c0.7,0.6,1.1,1.4,1.1,2.5c0,0.4-0.1,0.8-0.2,1.3c-0.2,0.5-0.5,1.3-1,2.3c-0.5,1-1.3,2.4-2.4,4.2
				c-1,1.8-2.4,4.1-4.2,6.9V29.9z"/>
			<path class="st0" d="M26,7c0-1.3,0.4-2.3,1.1-3.1c0.7-0.7,1.8-1.1,3.1-1.1H45c0.2,0.3,0.4,0.8,0.6,1.3c0.2,0.5,0.2,1.1,0.2,1.7
				c0,1.1-0.2,1.9-0.7,2.4c-0.5,0.5-1.1,0.7-2,0.7h-9.5v4.2h10.1c0.2,0.3,0.4,0.8,0.6,1.3c0.2,0.5,0.2,1.1,0.2,1.7
				c0,1.1-0.2,1.9-0.7,2.4c-0.5,0.5-1.1,0.7-1.9,0.7h-8.3V24h11.5c0.2,0.3,0.4,0.8,0.6,1.3c0.2,0.5,0.2,1.1,0.2,1.7
				c0,1.1-0.2,2-0.7,2.4s-1.1,0.7-2,0.7H30.2c-1.3,0-2.3-0.4-3.1-1.1C26.4,28.3,26,27.3,26,26V7z"/>
			<path class="st0" d="M47.1,9.2c-0.2-0.3-0.4-0.8-0.6-1.3c-0.2-0.6-0.3-1.2-0.3-1.8c0-1.2,0.3-2,0.8-2.5c0.5-0.5,1.2-0.8,2-0.8
				h19.6c0.2,0.3,0.4,0.8,0.6,1.3c0.2,0.6,0.3,1.2,0.3,1.8c0,1.2-0.3,2-0.8,2.5c-0.5,0.5-1.2,0.8-2,0.8h-5v20.7
				c-0.3,0.1-0.8,0.2-1.5,0.3c-0.7,0.1-1.4,0.1-2.1,0.1c-0.7,0-1.3-0.1-1.8-0.2c-0.5-0.1-1-0.3-1.3-0.6c-0.4-0.3-0.6-0.6-0.8-1.1
				c-0.2-0.5-0.3-1.1-0.3-1.9V9.2H47.1z"/>
		</g>
		<g>
			<path class="st1" d="M83.7,8.4c-2.3,0-4.1,0.7-5.3,2.1c-1.2,1.4-1.8,3.4-1.8,6c0,2.6,0.7,4.6,2,6c1.4,1.4,3.2,2.1,5.5,2.1
				c1.2,0,2.3-0.2,3.1-0.5c0.9-0.3,1.7-0.7,2.4-1.1c0.5,0.4,0.9,0.9,1.2,1.5c0.3,0.6,0.4,1.3,0.4,2c0,1.2-0.7,2.3-2,3.1
				c-1.4,0.9-3.4,1.3-6.2,1.3c-2,0-3.9-0.3-5.7-0.9c-1.8-0.6-3.3-1.4-4.6-2.6c-1.3-1.2-2.4-2.7-3.1-4.5c-0.8-1.8-1.1-4-1.1-6.5
				c0-2.3,0.4-4.4,1.1-6.2c0.7-1.8,1.7-3.3,3-4.5c1.3-1.2,2.8-2.2,4.5-2.8C78.8,2.3,80.6,2,82.6,2c2.8,0,4.9,0.4,6.4,1.3
				c1.5,0.9,2.3,2,2.3,3.5c0,0.8-0.2,1.5-0.6,2c-0.4,0.6-0.8,1-1.3,1.3c-0.8-0.5-1.6-0.9-2.5-1.3C85.9,8.5,84.9,8.4,83.7,8.4z"/>
			<path class="st1" d="M99.7,3.7c0.5-0.3,1.3-0.6,2.3-0.9s2.1-0.4,3.1-0.4c1.5,0,2.8,0.2,4,0.7c1.2,0.4,1.9,1.1,2.2,2
				c0.5,1.6,1.1,3.4,1.8,5.4c0.6,2.1,1.3,4.2,1.9,6.4c0.6,2.2,1.2,4.4,1.8,6.5c0.6,2.1,1.1,4,1.6,5.7c-0.4,0.4-0.9,0.8-1.6,1
				c-0.7,0.3-1.6,0.4-2.6,0.4c-0.7,0-1.3-0.1-1.8-0.2c-0.5-0.1-0.9-0.3-1.2-0.5c-0.3-0.2-0.6-0.6-0.8-0.9c-0.2-0.4-0.4-0.8-0.5-1.3
				l-0.8-3.1H101c-0.2,0.9-0.5,1.8-0.7,2.8c-0.2,1-0.5,1.9-0.7,2.8c-0.4,0.1-0.9,0.3-1.3,0.4c-0.5,0.1-1,0.2-1.7,0.2
				c-1.5,0-2.7-0.3-3.4-0.8c-0.7-0.5-1.1-1.2-1.1-2.2c0-0.4,0.1-0.8,0.2-1.3c0.1-0.4,0.3-0.9,0.4-1.5c0.2-0.8,0.5-1.8,0.9-3
				c0.4-1.2,0.8-2.5,1.2-3.9c0.4-1.4,0.9-2.8,1.4-4.3c0.5-1.5,1-2.8,1.4-4.2C98,8.2,98.4,7,98.8,6C99.2,5,99.5,4.2,99.7,3.7z
				 M105.1,9.5c-0.4,1.3-0.9,2.7-1.4,4.2c-0.5,1.5-1,3.1-1.4,4.7h5.6c-0.4-1.6-0.8-3.2-1.3-4.7c-0.4-1.5-0.8-2.9-1.2-4.2H105.1z"/>
			<path class="st1" d="M127.6,21.3v8.6c-0.3,0.1-0.8,0.2-1.5,0.3c-0.7,0.1-1.4,0.1-2.1,0.1c-0.7,0-1.3-0.1-1.8-0.2
				c-0.5-0.1-1-0.3-1.3-0.6c-0.3-0.3-0.6-0.6-0.8-1.1c-0.2-0.5-0.3-1.1-0.3-1.9V5.4c0-0.6,0.2-1.1,0.5-1.5c0.3-0.3,0.8-0.6,1.4-0.8
				c1-0.4,2.2-0.6,3.5-0.8c1.3-0.2,2.8-0.2,4.3-0.2c4.1,0,7.2,0.9,9.3,2.6c2.1,1.7,3.1,4.1,3.1,7c0,1.9-0.5,3.4-1.4,4.8
				c-1,1.3-2.1,2.3-3.4,3.1c1.1,1.5,2.1,2.8,3.2,4.1c1,1.3,1.9,2.5,2.5,3.5c-0.3,1-0.8,1.8-1.6,2.4c-0.8,0.6-1.7,0.8-2.7,0.8
				c-0.7,0-1.2-0.1-1.7-0.2c-0.5-0.1-0.9-0.4-1.3-0.6c-0.4-0.3-0.7-0.6-1-1c-0.3-0.4-0.6-0.8-0.9-1.3l-3.8-6.1H127.6z M130.4,15.3
				c1.1,0,2-0.3,2.7-0.9c0.7-0.6,1-1.4,1-2.6c0-1.1-0.4-2-1.1-2.6c-0.7-0.6-1.9-0.9-3.5-0.9c-0.4,0-0.8,0-1.1,0
				c-0.3,0-0.6,0.1-0.9,0.1v6.7H130.4z"/>
			<path class="st1" d="M169.2,25.6c0,0.9-0.2,1.6-0.5,2.1c-0.3,0.4-0.9,0.9-1.6,1.3c-0.4,0.2-0.9,0.5-1.6,0.7
				c-0.6,0.2-1.3,0.4-2.1,0.6c-0.7,0.2-1.5,0.3-2.4,0.4c-0.8,0.1-1.6,0.1-2.4,0.1c-2.2,0-4.2-0.3-6.1-0.9c-1.9-0.6-3.5-1.5-4.9-2.6
				c-1.4-1.2-2.5-2.7-3.3-4.4c-0.8-1.8-1.2-3.8-1.2-6.1c0-2.5,0.4-4.6,1.3-6.4c0.9-1.8,2-3.3,3.5-4.6c1.5-1.2,3.1-2.1,5-2.7
				c1.9-0.6,3.8-0.9,5.8-0.9c2.8,0,5.1,0.5,6.8,1.4c1.7,0.9,2.5,2.1,2.5,3.6c0,0.8-0.2,1.5-0.6,2c-0.4,0.6-0.8,1-1.3,1.3
				c-0.7-0.4-1.7-0.9-2.8-1.3c-1.1-0.4-2.4-0.7-3.8-0.7c-2.5,0-4.5,0.7-6,2.2c-1.5,1.4-2.2,3.4-2.2,6c0,1.4,0.2,2.6,0.6,3.6
				c0.4,1,0.9,1.8,1.6,2.5c0.7,0.6,1.5,1.1,2.4,1.4c0.9,0.3,1.9,0.5,2.9,0.5c0.7,0,1.2-0.1,1.8-0.2c0.5-0.1,0.9-0.3,1.2-0.4v-4.2
				h-4.8c-0.2-0.3-0.4-0.8-0.5-1.3c-0.2-0.5-0.2-1.1-0.2-1.7c0-1.1,0.2-1.9,0.7-2.3c0.5-0.5,1.1-0.7,1.9-0.7h7.6
				c0.9,0,1.6,0.2,2.1,0.7c0.5,0.5,0.7,1.2,0.7,2.1V25.6z"/>
			<g>
				<path class="st1" d="M184.4,0.6c-6.5,0-12,3.9-14.4,9.6c5.8-1.8,13.3-4.1,13.9-4.3c1-0.3,1.3-0.1,1.4,0.5
					c0.1,0.6,0.4,3.7,0.4,3.7s2.6-0.9,3-1c0.5-0.1,0.9,0,1.3,0.3c0.4,0.3,4.2,4,4.2,4c1.4-0.4,2,0.3,2.1,1c0.1,0.7,0.5,3.8,0.5,4.4
					c0,0.6-0.1,1-0.9,1.3c-0.1,0-0.5,0.2-1.2,0.4c0.1,0.5,0,1.1-0.1,1.6c-0.5,2-2.4,3.3-4.1,2.9c-1.2-0.3-2-1.3-2.3-2.5
					c-2.7,0.8-5.7,1.8-8.3,2.6c0.1,0.5,0,1.1-0.1,1.6c-0.4,1.6-1.6,2.8-3,3c2.2,1.3,4.8,2,7.6,2c8.6,0,15.6-7,15.6-15.6
					S193,0.6,184.4,0.6z"/>
				<ellipse transform="matrix(0.9711 0.2386 -0.2386 0.9711 11.316 -41.3847)" class="st1" cx="176.6" cy="26.1" rx="1.7" ry="2"/>
				<polygon class="st1" points="185.9,11.8 186.4,15.9 192.3,14.1 188.9,10.8 				"/>
				
					<ellipse transform="matrix(-0.9711 -0.2386 0.2386 -0.9711 372.3838 87.9554)" class="st1" cx="191.5" cy="21.4" rx="1.7" ry="2"/>
			</g>
		</g>
	</g>
	<g>
		<path class="st1" d="M2.2,41.2c-0.6,0-1-0.5-1-1s0.5-1,1-1c0.6,0,1,0.5,1,1C3.2,40.8,2.8,41.2,2.2,41.2z M1.2,47.3l0.3-5.6l1.3,0
			c0,1.9,0.1,3.7,0.2,5.6L1.2,47.3z"/>
		<path class="st1" d="M7.4,38.5h2V40h-2v6.3H5.9V40h-2v-1.6h2H7.4z"/>
		<path class="st1" d="M16.5,38.5v3.2v1.6c0,0.9-0.3,1.6-0.9,2.2c-0.6,0.6-1.4,0.9-2.2,0.9c-0.9,0-1.6-0.3-2.2-0.9
			c-0.6-0.6-0.9-1.4-0.9-2.2v-1.6v-3.2h1.6v3.2v1.4v0.2c0,0.4,0.2,0.8,0.5,1.1c0.3,0.3,0.7,0.5,1.1,0.5c0.4,0,0.8-0.2,1.1-0.5
			c0.3-0.3,0.5-0.7,0.5-1.1v-0.2v-1.4v-3.2H16.5z"/>
		<path class="st1" d="M23.6,38.5h2V40h-2v6.3H22V40h-2v-1.6h2H23.6z"/>
		<path class="st1" d="M26.3,38.4h2.6c0.8,0,1.5,0.3,2.1,0.8c0.5,0.5,0.8,1.1,0.8,1.8v0.2c0,0.6-0.2,1-0.5,1.5
			c-0.3,0.5-0.6,0.6-1.1,0.8l1.8,2.7h-1.9l-2-3.1v3.1h-1.6L26.3,38.4z M29,42.3c0.3,0,0.5-0.1,0.7-0.3c0.2-0.2,0.3-0.5,0.3-0.8
			c0-0.3-0.1-0.5-0.3-0.8c-0.2-0.2-0.6-0.3-1-0.3h-0.9v2.2L29,42.3z"/>
		<path class="st1" d="M34.6,45.2l-0.5,1.1h-0.3h-0.1h-1h-0.3l3.6-8l3.6,8h-0.3h-1h-0.1h-0.3l-0.5-1.1l0-0.1L34.6,45.2L34.6,45.2z
			 M36.6,43.7l-0.7-1.6l-0.7,1.6H36.6z"/>
		<path class="st1" d="M44.9,42.8v-4.4h1.6v8L41.7,42v4.4h-1.6v-8L44.9,42.8z"/>
		<path class="st1" d="M49.6,44.8c0.4,0,0.8-0.4,0.8-0.8c0-0.3-0.1-0.6-0.4-0.7c-0.6-0.2-0.4-0.2-1-0.4c-0.6-0.2-1.1-0.6-1.5-1.1
			c-0.2-0.3-0.3-0.7-0.3-1.1c0-0.7,0.2-1.2,0.7-1.7s1-0.7,1.7-0.7c0.7,0,1.2,0.2,1.7,0.7s0.7,1,0.7,1.7h-1.6c0-0.4-0.4-0.8-0.8-0.8
			c-0.4,0-0.8,0.4-0.8,0.8c0,0.3,0.1,0.5,0.3,0.6c0.5,0.3,0.4,0.2,1,0.4c0.6,0.2,1.2,0.6,1.5,1c0.2,0.3,0.3,0.7,0.3,1.1
			c0,0.7-0.2,1.2-0.7,1.7s-1,0.7-1.7,0.7c-0.7,0-1.2-0.2-1.7-0.7s-0.7-1-0.7-1.7h1.6C48.8,44.4,49.1,44.8,49.6,44.8L49.6,44.8z"/>
		<path class="st1" d="M52.7,44v-2.8v-2.8h1.6h1.2c0.8,0,1.4,0.3,2,0.8c0.5,0.5,0.8,1.2,0.8,2c0,0.8-0.3,1.4-0.8,2
			c-0.5,0.5-1.2,0.8-2,0.8h-1.2v2.4h-1.6V44z M55.5,42.4c0.3,0,0.6-0.1,0.8-0.3c0.2-0.2,0.3-0.5,0.3-0.8c0-0.3-0.1-0.6-0.3-0.8
			c-0.2-0.2-0.5-0.4-0.8-0.4h-1.2v1.2v1.2L55.5,42.4z"/>
		<path class="st1" d="M65.5,39.6c0.8,0.8,1.2,1.7,1.2,2.8c0,1.1-0.4,2-1.2,2.8s-1.7,1.2-2.8,1.2s-2-0.4-2.8-1.2
			c-0.8-0.8-1.2-1.7-1.2-2.8c0-1.1,0.4-2,1.2-2.8c0.8-0.8,1.7-1.2,2.8-1.2S64.8,38.8,65.5,39.6z M61,40.7c-0.5,0.5-0.7,1-0.7,1.7
			c0,0.7,0.2,1.2,0.7,1.7c0.5,0.5,1,0.7,1.7,0.7c0.7,0,1.2-0.2,1.7-0.7c0.5-0.5,0.7-1,0.7-1.7c0-0.7-0.2-1.2-0.7-1.7s-1-0.7-1.7-0.7
			C62.1,40,61.5,40.2,61,40.7z"/>
		<path class="st1" d="M67.3,38.4h2.6c0.8,0,1.5,0.3,2.1,0.8s0.8,1.1,0.8,1.8v0.2c0,0.6-0.2,1-0.5,1.5c-0.3,0.5-0.6,0.6-1.1,0.8
			l1.8,2.7h-1.9l-2-3.1v3.1h-1.6L67.3,38.4z M70,42.3c0.3,0,0.5-0.1,0.7-0.3c0.2-0.2,0.3-0.5,0.3-0.8c0-0.3-0.1-0.5-0.3-0.8
			c-0.2-0.2-0.6-0.3-1-0.3h-0.9v2.2L70,42.3z"/>
		<path class="st1" d="M77,38.5h2V40h-2v6.3h-1.6V40h-2v-1.6h2H77z"/>
		<path class="st1" d="M84.4,38.5V40h-3.2v1.6h2.4v1.6h-2.4v1.6h3.2v1.6h-3.2h-1.6v-7.9H84.4z"/>
		<path class="st1" d="M90,38.5c1.1,0,2.1,0.4,2.9,1.2c1.4,1.4,1.4,4.2,0,5.6c-0.8,0.8-1.8,1.2-2.9,1.2h-2v-7.9L90,38.5L90,38.5z
			 M90,44.8c0.6,0,1.2-0.2,1.7-0.6c0.5-0.5,0.6-1.1,0.6-1.7c0-0.6-0.2-1.3-0.6-1.7C91.3,40.2,90.7,40,90,40h-0.4v4.7H90L90,44.8z"/>
		<path class="st1" d="M99.3,38.5V40h-3.2v1.6h2.4v1.6h-2.4v1.6h3.2v1.6h-3.2h-1.6v-7.9H99.3z"/>
		<path class="st1" d="M106.8,38.4c0.5,0,1.1,0.1,1.5,0.3c0.5,0.2,0.9,0.5,1.3,0.9l-1.1,1.1c-0.5-0.5-1-0.7-1.7-0.7
			c-0.7,0-1.2,0.2-1.7,0.7c-0.5,0.5-0.7,1-0.7,1.7c0,0.7,0.2,1.2,0.7,1.7c0.5,0.5,1,0.7,1.7,0.7s1.2-0.2,1.7-0.7l1.1,1.1
			c-0.4,0.4-0.8,0.6-1.3,0.9c-0.5,0.2-1,0.3-1.5,0.3c-1.1,0-2-0.4-2.8-1.2c-0.8-0.8-1.2-1.7-1.2-2.8c0-1.1,0.4-2,1.2-2.8
			C104.7,38.8,105.7,38.4,106.8,38.4L106.8,38.4z"/>
		<path class="st1" d="M112,45.2l-0.5,1.1h-0.3h-0.1h-1h-0.3l3.6-8l3.6,8h-0.3h-1h-0.1h-0.3l-0.5-1.1l0-0.1L112,45.2L112,45.2z
			 M114.1,43.7l-0.7-1.6l-0.7,1.6H114.1z"/>
		<path class="st1" d="M117.6,38.4h2.6c0.8,0,1.5,0.3,2.1,0.8s0.8,1.1,0.8,1.8v0.2c0,0.6-0.2,1-0.5,1.5s-0.6,0.6-1.1,0.8l1.8,2.7
			h-1.9l-2-3.1v3.1h-1.6L117.6,38.4z M120.3,42.3c0.3,0,0.5-0.1,0.7-0.3c0.2-0.2,0.3-0.5,0.3-0.8c0-0.3-0.1-0.5-0.3-0.8
			c-0.2-0.2-0.6-0.3-1-0.3h-0.9v2.2L120.3,42.3z"/>
		<path class="st1" d="M127.7,38.4c0.5,0,1.1,0.1,1.5,0.3c0.5,0.2,0.9,0.5,1.3,0.9l-1.1,1.1c-0.5-0.5-1-0.7-1.7-0.7
			c-0.7,0-1.2,0.2-1.7,0.7c-0.5,0.5-0.7,1-0.7,1.7c0,0.7,0.2,1.2,0.7,1.7c0.5,0.5,1,0.7,1.7,0.7c0.5,0,1-0.1,1.4-0.4
			c0.4-0.3,0.7-0.7,0.9-1.1h-2.3v-1.6h2.3h0.9h0.7c0.1,0.2,0.1,0.5,0.1,0.8c0,1.1-0.4,2-1.2,2.8s-1.7,1.2-2.8,1.2s-2-0.4-2.8-1.2
			c-0.8-0.8-1.2-1.7-1.2-2.8c0-1.1,0.4-2,1.2-2.8C125.6,38.8,126.6,38.4,127.7,38.4L127.7,38.4z"/>
		<path class="st1" d="M133.5,45.2l-0.5,1.1h-0.3h-0.1h-1h-0.3l3.6-8l3.6,8h-0.3h-1H137h-0.3l-0.5-1.1l0-0.1L133.5,45.2L133.5,45.2z
			 M135.6,43.7l-0.7-1.6l-0.7,1.6H135.6z"/>
		<path class="st1" d="M146.7,38.5V40h-3.2v1.6h2.4v1.6h-2.4v1.6h3.2v1.6h-3.2H142v-7.9H146.7z"/>
		<path class="st1" d="M152.2,42.8v-4.4h1.6v8l-4.7-4.5v4.4h-1.6v-8L152.2,42.8z"/>
		<path class="st1" d="M163.9,38.5v3.2v1.6c0,0.9-0.3,1.6-0.9,2.2c-0.6,0.6-1.4,0.9-2.2,0.9c-0.9,0-1.6-0.3-2.2-0.9
			s-0.9-1.4-0.9-2.2v-1.6v-3.2h1.6v3.2v1.4v0.2c0,0.4,0.2,0.8,0.5,1.1c0.3,0.3,0.7,0.5,1.1,0.5c0.4,0,0.8-0.2,1.1-0.5
			c0.3-0.3,0.5-0.7,0.5-1.1v-0.2v-1.4v-3.2H163.9z"/>
		<path class="st1" d="M169.4,42.8v-4.4h1.6v8l-4.7-4.5v4.4h-1.6v-8L169.4,42.8z"/>
		<path class="st1" d="M178.5,38.4c0.5,0,1.1,0.1,1.5,0.3c0.5,0.2,0.9,0.5,1.3,0.9l-1.1,1.1c-0.5-0.5-1-0.7-1.7-0.7
			c-0.7,0-1.2,0.2-1.7,0.7c-0.5,0.5-0.7,1-0.7,1.7c0,0.7,0.2,1.2,0.7,1.7c0.5,0.5,1,0.7,1.7,0.7c0.7,0,1.2-0.2,1.7-0.7l1.1,1.1
			c-0.4,0.4-0.8,0.6-1.3,0.9c-0.5,0.2-1,0.3-1.5,0.3c-1.1,0-2-0.4-2.8-1.2c-0.8-0.8-1.2-1.7-1.2-2.8c0-1.1,0.4-2,1.2-2.8
			C176.5,38.8,177.4,38.4,178.5,38.4L178.5,38.4z"/>
		<path class="st1" d="M183.5,38.5v6.3h3.2v1.6h-4.7v-7.9H183.5z"/>
		<path class="st1" d="M187.2,38.5h1.6v7.9h-1.6V38.5z"/>
		<path class="st1" d="M193.4,38.4c0.5,0,1.1,0.1,1.5,0.3c0.5,0.2,0.9,0.5,1.3,0.9l-1.1,1.1c-0.5-0.5-1-0.7-1.7-0.7
			c-0.7,0-1.2,0.2-1.7,0.7s-0.7,1-0.7,1.7c0,0.7,0.2,1.2,0.7,1.7c0.5,0.5,1,0.7,1.7,0.7s1.2-0.2,1.7-0.7l1.1,1.1
			c-0.4,0.4-0.8,0.6-1.3,0.9c-0.5,0.2-1,0.3-1.5,0.3c-1.1,0-2-0.4-2.8-1.2s-1.2-1.7-1.2-2.8c0-1.1,0.4-2,1.2-2.8
			S192.3,38.4,193.4,38.4L193.4,38.4z"/>
		<path class="st1" d="M197.8,44.5c0.6,0,1,0.5,1,1c0,0.6-0.5,1-1,1s-1-0.5-1-1C196.8,45,197.3,44.5,197.8,44.5z M198.7,38.4
			l-0.2,5.6h-1.3c-0.1-1.9-0.2-3.7-0.3-5.6H198.7z"/>
	</g>
</g>
</svg>
