<?xml version="1.0" encoding="utf-8"?>
<!-- Generator: Adobe Illustrator 19.0.1, SVG Export Plug-In . SVG Version: 6.00 Build 0)  -->
<svg version="1.1" id="Capa_1" xmlns="http://www.w3.org/2000/svg" xmlns:xlink="http://www.w3.org/1999/xlink" x="0px" y="0px"
	 viewBox="0 0 260 140" style="enable-background:new 0 0 260 140;" xml:space="preserve">
<style type="text/css">
	.st0{fill:#F38F1B;}
	.st1{fill:#FFFFFF;}
</style>
<g>
	<g>
		<path class="st0" d="M69.4,80.8V43.9c0-1.8-1.4-3.2-3.2-3.2H47.1c-15.3,0-18.8,3.4-24.6,22.8c0,0,0,16.9,0,20.9
			c0,3.8,1,11.4,1,11.4h4.2c0-7,5.7-12.7,12.7-12.7c7,0,12.7,5.7,12.7,12.7h82.5c0-7,5.7-12.7,12.7-12.7c7,0,12.7,5.7,12.7,12.7h5
			c0-7,5.7-12.7,12.7-12.7c7,0,12.7,5.7,12.7,12.7h30.7c8.2,0,16.5-4.4,16.6-14.2c0,0,0-0.1,0-0.1v-0.6H69.4z"/>
	</g>
	<g>
		<g>
			<path class="st0" d="M235.5,106.7h-210c-1.6,0-3,1.3-3,3h216C238.5,108,237.2,106.7,235.5,106.7z"/>
		</g>
	</g>
	<g>
		<path class="st0" d="M167.6,95.7c0,6,4.9,10.9,10.9,10.9c6,0,10.9-4.9,10.9-10.9c0-6-4.9-10.9-10.9-10.9
			C172.5,84.8,167.6,89.7,167.6,95.7z"/>
		<path class="st1" d="M178.5,103.5c-4.3,0-7.7-3.5-7.7-7.7c0-4.3,3.5-7.7,7.7-7.7c4.3,0,7.7,3.5,7.7,7.7
			C186.3,100,182.8,103.5,178.5,103.5L178.5,103.5z"/>
		<path class="st0" d="M178.5,101.7c-3.3,0-6-2.7-6-6c0-3.3,2.7-6,6-6c3.3,0,6,2.7,6,6C184.5,99,181.8,101.7,178.5,101.7
			L178.5,101.7z"/>
		<path class="st1" d="M178.5,100.1c-2.4,0-4.3-1.9-4.3-4.3c0-2.4,1.9-4.3,4.3-4.3c2.4,0,4.3,1.9,4.3,4.3
			C182.9,98.1,180.9,100.1,178.5,100.1L178.5,100.1z"/>
		<circle class="st0" cx="40.3" cy="95.7" r="10.9"/>
		<path class="st1" d="M40.3,103.5c-4.3,0-7.7-3.5-7.7-7.7c0-4.3,3.5-7.7,7.7-7.7c4.3,0,7.7,3.5,7.7,7.7
			C48,100,44.6,103.5,40.3,103.5L40.3,103.5z"/>
		<path class="st0" d="M40.3,101.7c-3.3,0-6-2.7-6-6c0-3.3,2.7-6,6-6c3.3,0,6,2.7,6,6C46.3,99,43.6,101.7,40.3,101.7L40.3,101.7z"/>
		<path class="st1" d="M40.3,100.1c-2.4,0-4.3-1.9-4.3-4.3c0-2.4,1.9-4.3,4.3-4.3c2.4,0,4.3,1.9,4.3,4.3
			C44.6,98.1,42.7,100.1,40.3,100.1L40.3,100.1z"/>
	</g>
	<g>
		<circle class="st0" cx="148.2" cy="95.7" r="10.9"/>
		<path class="st1" d="M148.2,103.5c-4.3,0-7.7-3.5-7.7-7.7c0-4.3,3.5-7.7,7.7-7.7c4.3,0,7.7,3.5,7.7,7.7
			C155.9,100,152.4,103.5,148.2,103.5L148.2,103.5z"/>
		<path class="st0" d="M148.2,101.7c-3.3,0-6-2.7-6-6c0-3.3,2.7-6,6-6c3.3,0,6,2.7,6,6C154.2,99,151.5,101.7,148.2,101.7
			L148.2,101.7z"/>
		<path class="st1" d="M148.2,100.1c-2.4,0-4.3-1.9-4.3-4.3c0-2.4,1.9-4.3,4.3-4.3c2.4,0,4.3,1.9,4.3,4.3
			C152.5,98.1,150.6,100.1,148.2,100.1L148.2,100.1z"/>
	</g>
	<g>
		<path class="st0" d="M238.5,34.6c0-2-1.7-3.7-3.7-3.7H80.2c-2,0-3.7,1.7-3.7,3.7v43h162V34.6z"/>
	</g>
	<g>
		<path class="st1" d="M45.2,44.8L45.2,44.8L45.2,44.8c-11.7,0.1-13.4,2.1-19,18h22.5v-18C48.7,44.8,45.6,44.8,45.2,44.8z"/>
	</g>
	<g>
		<path class="st1" d="M56.7,48.5c0-2-1.7-3.7-3.7-3.7H52v18.1h4.8V48.5z"/>
	</g>
</g>
</svg>
