<?xml version="1.0" encoding="utf-8"?>
<!-- Generator: Adobe Illustrator 19.0.1, SVG Export Plug-In . SVG Version: 6.00 Build 0)  -->
<svg version="1.1" id="Capa_1" xmlns="http://www.w3.org/2000/svg" xmlns:xlink="http://www.w3.org/1999/xlink" x="0px" y="0px"
	 viewBox="0 0 540 140" style="enable-background:new 0 0 540 140;" xml:space="preserve">
<style type="text/css">
	.st0{fill:#F38F1B;}
	.st1{fill:#FFFFFF;}
</style>
<g>
	<g>
		<g>
			<path class="st0" d="M141,83.9V23.7c0-2.6-2.1-4.7-4.7-4.7h-27.1c0,0-0.1,0-0.1,0c0,0-0.1,0-0.1,0h-9.1c-2.6,0-5.9,2.1-7.4,4.7
				l-5.9,9.2c-15.5,0.2-18.3,3.5-26.7,27.6H21.6c-2.6,0-4.7,2.1-4.7,4.7v23.2c0,9.6,2,14.3,2,14.3H25c0-8.8,7.2-16,16-16
				c8.8,0,16,7.2,16,16h112c0-8.8,7.2-16,16-16c8.8,0,16,7.2,16,16h4.7c0-8.8,7.2-16,16-16c8.8,0,16,7.2,16,16h7.8
				c10.3,0,20.8-5.5,21-18c0,0,0-0.1,0-0.1v-0.8H141z"/>
		</g>
		<g>
			<path class="st0" d="M207.7,102.7c0,7.6,6.2,13.8,13.8,13.8c7.6,0,13.8-6.2,13.8-13.8c0-7.6-6.2-13.8-13.8-13.8
				C213.9,88.9,207.7,95.1,207.7,102.7z"/>
			<path class="st1" d="M221.5,112.5c-5.4,0-9.8-4.4-9.8-9.8c0-5.4,4.4-9.8,9.8-9.8c5.4,0,9.8,4.4,9.8,9.8
				C231.2,108.1,226.9,112.5,221.5,112.5L221.5,112.5z"/>
			<path class="st0" d="M221.5,110.3c-4.2,0-7.6-3.4-7.6-7.6c0-4.2,3.4-7.6,7.6-7.6c4.2,0,7.6,3.4,7.6,7.6
				C229.1,106.9,225.7,110.3,221.5,110.3L221.5,110.3z"/>
			<path class="st1" d="M221.5,108.2c-3,0-5.5-2.5-5.5-5.5c0-3,2.5-5.5,5.5-5.5c3,0,5.5,2.5,5.5,5.5
				C227,105.7,224.5,108.2,221.5,108.2L221.5,108.2z"/>
			<circle class="st0" cx="41" cy="102.7" r="13.8"/>
			<path class="st1" d="M41,112.5c-5.4,0-9.8-4.4-9.8-9.8c0-5.4,4.4-9.8,9.8-9.8c5.4,0,9.8,4.4,9.8,9.8
				C50.7,108.1,46.4,112.5,41,112.5L41,112.5z"/>
			<path class="st0" d="M41,110.3c-4.2,0-7.6-3.4-7.6-7.6c0-4.2,3.4-7.6,7.6-7.6c4.2,0,7.6,3.4,7.6,7.6
				C48.6,106.9,45.2,110.3,41,110.3L41,110.3z"/>
			<path class="st1" d="M41,108.2c-3,0-5.5-2.5-5.5-5.5c0-3,2.5-5.5,5.5-5.5c3,0,5.5,2.5,5.5,5.5C46.4,105.7,44,108.2,41,108.2
				L41,108.2z"/>
		</g>
		<g>
			<path class="st0" d="M171.1,102.7c0,7.6,6.2,13.8,13.8,13.8c7.6,0,13.8-6.2,13.8-13.8c0-7.6-6.2-13.8-13.8-13.8
				C177.3,88.9,171.1,95.1,171.1,102.7z"/>
			<path class="st1" d="M184.9,112.5c-5.4,0-9.8-4.4-9.8-9.8c0-5.4,4.4-9.8,9.8-9.8c5.4,0,9.8,4.4,9.8,9.8
				C194.6,108.1,190.3,112.5,184.9,112.5L184.9,112.5z"/>
			<path class="st0" d="M184.9,110.3c-4.2,0-7.6-3.4-7.6-7.6c0-4.2,3.4-7.6,7.6-7.6c4.2,0,7.6,3.4,7.6,7.6
				C192.5,106.9,189.1,110.3,184.9,110.3L184.9,110.3z"/>
			<path class="st1" d="M184.9,108.2c-3,0-5.5-2.5-5.5-5.5c0-3,2.5-5.5,5.5-5.5c3,0,5.5,2.5,5.5,5.5
				C190.4,105.7,187.9,108.2,184.9,108.2L184.9,108.2z"/>
		</g>
		<g>
			<path class="st1" d="M89.1,37.8L89.1,37.8L89.1,37.8c-14.8,0.2-17.2,1.5-23.9,22.8h26.7V37.8C91.8,37.8,89.6,37.8,89.1,37.8z"/>
		</g>
		<g>
			<path class="st1" d="M102,42.4c0-2.6-2.1-4.7-4.7-4.7H96v22.8h6V42.4z"/>
		</g>
	</g>
	<g>
		<g>
			<path class="st0" d="M520.8,116.5H20.7c-2.1,0-3.8,1.7-3.8,3.8h507.6C524.5,118.2,522.8,116.5,520.8,116.5z"/>
		</g>
	</g>
	<g>
		<circle class="st0" cx="454.3" cy="102.7" r="13.8"/>
		<path class="st1" d="M454.3,112.5c-5.4,0-9.8-4.4-9.8-9.8c0-5.4,4.4-9.8,9.8-9.8c5.4,0,9.8,4.4,9.8,9.8
			C464,108.1,459.6,112.5,454.3,112.5L454.3,112.5z"/>
		<path class="st0" d="M454.3,110.3c-4.2,0-7.6-3.4-7.6-7.6c0-4.2,3.4-7.6,7.6-7.6c4.2,0,7.6,3.4,7.6,7.6
			C461.8,106.9,458.4,110.3,454.3,110.3L454.3,110.3z"/>
		<path class="st1" d="M454.3,108.2c-3,0-5.5-2.5-5.5-5.5c0-3,2.5-5.5,5.5-5.5c3,0,5.5,2.5,5.5,5.5
			C459.7,105.7,457.3,108.2,454.3,108.2L454.3,108.2z"/>
		<circle class="st0" cx="381.1" cy="102.7" r="13.8"/>
		<path class="st1" d="M381.1,112.5c-5.4,0-9.8-4.4-9.8-9.8c0-5.4,4.4-9.8,9.8-9.8c5.4,0,9.8,4.4,9.8,9.8
			C390.8,108.1,386.4,112.5,381.1,112.5L381.1,112.5z"/>
		<path class="st0" d="M381.1,110.3c-4.2,0-7.6-3.4-7.6-7.6c0-4.2,3.4-7.6,7.6-7.6c4.2,0,7.6,3.4,7.6,7.6
			C388.6,106.9,385.2,110.3,381.1,110.3L381.1,110.3z"/>
		<path class="st1" d="M381.1,108.2c-3,0-5.5-2.5-5.5-5.5c0-3,2.5-5.5,5.5-5.5c3,0,5.5,2.5,5.5,5.5
			C386.5,105.7,384.1,108.2,381.1,108.2L381.1,108.2z"/>
	</g>
	<g>
		<path class="st0" d="M403.9,102.7c0,7.6,6.2,13.8,13.8,13.8c7.6,0,13.8-6.2,13.8-13.8c0-7.6-6.2-13.8-13.8-13.8
			C410,88.9,403.9,95.1,403.9,102.7z"/>
		<path class="st1" d="M417.7,112.5c-5.4,0-9.8-4.4-9.8-9.8c0-5.4,4.4-9.8,9.8-9.8c5.4,0,9.8,4.4,9.8,9.8
			C427.4,108.1,423,112.5,417.7,112.5L417.7,112.5z"/>
		<path class="st0" d="M417.7,110.3c-4.2,0-7.6-3.4-7.6-7.6c0-4.2,3.4-7.6,7.6-7.6c4.2,0,7.6,3.4,7.6,7.6
			C425.2,106.9,421.8,110.3,417.7,110.3L417.7,110.3z"/>
		<path class="st1" d="M417.7,108.2c-3,0-5.5-2.5-5.5-5.5c0-3,2.5-5.5,5.5-5.5c3,0,5.5,2.5,5.5,5.5
			C423.1,105.7,420.7,108.2,417.7,108.2L417.7,108.2z"/>
	</g>
	<g>
		<g>
			<g>
				<path class="st0" d="M524.5,23.7c0-2.6-2.1-4.7-4.7-4.7H163.2c-1.9,0-3.6,1.2-4.3,2.8c-0.2,0.6-0.4,1.2-0.4,1.8v56.1h366V23.7z"
					/>
			</g>
		</g>
	</g>
	<path class="st0" d="M378,83.9h-5h-62.4c0,2,0,3.6,0,4.5c0,9.1,2.8,14.3,2.8,14.3h51.7c0-8.8,7.2-16,16-16c8.8,0,16,7.2,16,16h4.7
		c0-8.8,7.2-16,16-16c8.8,0,16,7.2,16,16h4.7c0-8.8,7.2-16,16-16c8.8,0,16,7.2,16,16h33.3c10.3,0,20.8-5.5,21-18c0,0,0-0.1,0-0.1
		v-0.8H378z"/>
</g>
</svg>
