<?xml version="1.0" encoding="utf-8"?>
<!-- Generator: Adobe Illustrator 19.0.1, SVG Export Plug-In . SVG Version: 6.00 Build 0)  -->
<svg version="1.1" id="Capa_1" xmlns="http://www.w3.org/2000/svg" xmlns:xlink="http://www.w3.org/1999/xlink" x="0px" y="0px"
	 viewBox="0 0 540 140" style="enable-background:new 0 0 540 140;" xml:space="preserve">
<style type="text/css">
	.st0{fill:#F38F1B;}
	.st1{fill:#FFFFFF;}
</style>
<g>
	<g>
		<path class="st0" d="M78.5,84V23.8c0-2.6-2.1-4.7-4.7-4.7h-9c-23.7,0-36.5,15.8-39.4,20.5c-2.9,4.7-5.6,10.4-8.5,20.2
			c0,0,0,23.7,0,28.7c0,9.1,2.8,14.3,2.8,14.3h22.5c0-8.8,7.2-16,16-16c8.8,0,16,7.2,16,16h81.1c0-8.8,7.2-16,16-16
			c8.8,0,16,7.2,16,16h4.7c0-8.8,7.2-16,16-16c8.8,0,16,7.2,16,16h21.4c10.3,0,20.8-5.5,21-18c0,0,0-0.1,0-0.1V84H78.5z"/>
	</g>
	<g>
		<g>
			<path class="st0" d="M520.8,116.6H20.7c-2.1,0-3.8,1.7-3.8,3.8h507.6C524.5,118.3,522.8,116.6,520.8,116.6z"/>
		</g>
	</g>
	<g>
		<path class="st0" d="M194.2,102.8c0,7.6,6.2,13.8,13.8,13.8c7.6,0,13.8-6.2,13.8-13.8c0-7.6-6.2-13.8-13.8-13.8
			C200.3,89,194.2,95.2,194.2,102.8z"/>
		<path class="st1" d="M208,112.6c-5.4,0-9.8-4.4-9.8-9.8c0-5.4,4.4-9.8,9.8-9.8c5.4,0,9.8,4.4,9.8,9.8
			C217.7,108.2,213.3,112.6,208,112.6L208,112.6z"/>
		<path class="st0" d="M208,110.4c-4.2,0-7.6-3.4-7.6-7.6c0-4.2,3.4-7.6,7.6-7.6c4.2,0,7.6,3.4,7.6,7.6
			C215.5,107,212.1,110.4,208,110.4L208,110.4z"/>
		<path class="st1" d="M208,108.3c-3,0-5.5-2.5-5.5-5.5c0-3,2.5-5.5,5.5-5.5c3,0,5.5,2.5,5.5,5.5C213.4,105.8,211,108.3,208,108.3
			L208,108.3z"/>
		<circle class="st0" cx="58.3" cy="102.8" r="13.8"/>
		<path class="st1" d="M58.3,112.6c-5.4,0-9.8-4.4-9.8-9.8c0-5.4,4.4-9.8,9.8-9.8c5.4,0,9.8,4.4,9.8,9.8
			C68,108.2,63.6,112.6,58.3,112.6L58.3,112.6z"/>
		<path class="st0" d="M58.3,110.4c-4.2,0-7.6-3.4-7.6-7.6c0-4.2,3.4-7.6,7.6-7.6c4.2,0,7.6,3.4,7.6,7.6
			C65.8,107,62.4,110.4,58.3,110.4L58.3,110.4z"/>
		<path class="st1" d="M58.3,108.3c-3,0-5.5-2.5-5.5-5.5c0-3,2.5-5.5,5.5-5.5c3,0,5.5,2.5,5.5,5.5C63.7,105.8,61.3,108.3,58.3,108.3
			L58.3,108.3z"/>
	</g>
	<g>
		<circle class="st0" cx="171.4" cy="102.8" r="13.8"/>
		<path class="st1" d="M171.4,112.6c-5.4,0-9.8-4.4-9.8-9.8c0-5.4,4.4-9.8,9.8-9.8c5.4,0,9.8,4.4,9.8,9.8
			C181.1,108.2,176.7,112.6,171.4,112.6L171.4,112.6z"/>
		<path class="st0" d="M171.4,110.4c-4.2,0-7.6-3.4-7.6-7.6c0-4.2,3.4-7.6,7.6-7.6c4.2,0,7.6,3.4,7.6,7.6
			C178.9,107,175.5,110.4,171.4,110.4L171.4,110.4z"/>
		<path class="st1" d="M171.4,108.3c-3,0-5.5-2.5-5.5-5.5c0-3,2.5-5.5,5.5-5.5c3,0,5.5,2.5,5.5,5.5
			C176.8,105.8,174.4,108.3,171.4,108.3L171.4,108.3z"/>
	</g>
	<g>
		<path class="st1" d="M45.4,36.2L45.4,36.2C30.7,36.4,28.6,38.9,21.6,59h24.2V36.2H45.4z"/>
	</g>
	<g>
		<path class="st1" d="M56,40.9c0-2.6-2.1-4.7-4.7-4.7H50V59h6V40.9z"/>
	</g>
	<g>
		<circle class="st0" cx="454.3" cy="102.8" r="13.8"/>
		<path class="st1" d="M454.3,112.6c-5.4,0-9.8-4.4-9.8-9.8c0-5.4,4.4-9.8,9.8-9.8c5.4,0,9.8,4.4,9.8,9.8
			C464,108.2,459.6,112.6,454.3,112.6L454.3,112.6z"/>
		<path class="st0" d="M454.3,110.4c-4.2,0-7.6-3.4-7.6-7.6c0-4.2,3.4-7.6,7.6-7.6c4.2,0,7.6,3.4,7.6,7.6
			C461.8,107,458.4,110.4,454.3,110.4L454.3,110.4z"/>
		<path class="st1" d="M454.3,108.3c-3,0-5.5-2.5-5.5-5.5c0-3,2.5-5.5,5.5-5.5c3,0,5.5,2.5,5.5,5.5
			C459.7,105.8,457.3,108.3,454.3,108.3L454.3,108.3z"/>
		<path class="st0" d="M367.3,102.8c0,7.6,6.2,13.8,13.8,13.8c7.6,0,13.8-6.2,13.8-13.8c0-7.6-6.2-13.8-13.8-13.8
			C373.4,89,367.3,95.2,367.3,102.8z"/>
		<path class="st1" d="M381.1,112.6c-5.4,0-9.8-4.4-9.8-9.8c0-5.4,4.4-9.8,9.8-9.8c5.4,0,9.8,4.4,9.8,9.8
			C390.8,108.2,386.4,112.6,381.1,112.6L381.1,112.6z"/>
		<path class="st0" d="M381.1,110.4c-4.2,0-7.6-3.4-7.6-7.6c0-4.2,3.4-7.6,7.6-7.6c4.2,0,7.6,3.4,7.6,7.6
			C388.6,107,385.2,110.4,381.1,110.4L381.1,110.4z"/>
		<path class="st1" d="M381.1,108.3c-3,0-5.5-2.5-5.5-5.5c0-3,2.5-5.5,5.5-5.5c3,0,5.5,2.5,5.5,5.5
			C386.5,105.8,384.1,108.3,381.1,108.3L381.1,108.3z"/>
	</g>
	<g>
		<path class="st0" d="M403.9,102.8c0,7.6,6.2,13.8,13.8,13.8c7.6,0,13.8-6.2,13.8-13.8c0-7.6-6.2-13.8-13.8-13.8
			C410,89,403.9,95.2,403.9,102.8z"/>
		<path class="st1" d="M417.7,112.6c-5.4,0-9.8-4.4-9.8-9.8c0-5.4,4.4-9.8,9.8-9.8c5.4,0,9.8,4.4,9.8,9.8
			C427.4,108.2,423,112.6,417.7,112.6L417.7,112.6z"/>
		<path class="st0" d="M417.7,110.4c-4.2,0-7.6-3.4-7.6-7.6c0-4.2,3.4-7.6,7.6-7.6c4.2,0,7.6,3.4,7.6,7.6
			C425.2,107,421.8,110.4,417.7,110.4L417.7,110.4z"/>
		<path class="st1" d="M417.7,108.3c-3,0-5.5-2.5-5.5-5.5c0-3,2.5-5.5,5.5-5.5c3,0,5.5,2.5,5.5,5.5
			C423.1,105.8,420.7,108.3,417.7,108.3L417.7,108.3z"/>
	</g>
	<g>
		<g>
			<path class="st0" d="M524.5,23.8c0-2.6-2.1-4.7-4.7-4.7H101.5c-2.6,0-4.7,2.1-4.7,4.7v56.1h427.7V23.8z"/>
		</g>
	</g>
	<path class="st0" d="M378,84h-5h-62.4c0,2,0,3.6,0,4.5c0,9.1,2.8,14.3,2.8,14.3h51.7c0-8.8,7.2-16,16-16c8.8,0,16,7.2,16,16h4.7
		c0-8.8,7.2-16,16-16c8.8,0,16,7.2,16,16h4.7c0-8.8,7.2-16,16-16c8.8,0,16,7.2,16,16h33.3c10.3,0,20.8-5.5,21-18c0,0,0-0.1,0-0.1V84
		H378z"/>
</g>
</svg>
