<?xml version="1.0" encoding="utf-8"?>
<!-- Generator: Adobe Illustrator 19.0.1, SVG Export Plug-In . SVG Version: 6.00 Build 0)  -->
<svg version="1.1" id="Capa_1" xmlns="http://www.w3.org/2000/svg" xmlns:xlink="http://www.w3.org/1999/xlink" x="0px" y="0px"
	 viewBox="0 0 200 140" style="enable-background:new 0 0 200 140;" xml:space="preserve">
<style type="text/css">
	.st0{fill:#F28F1C;}
	.st1{fill:#FFFFFF;}
</style>
<g>
	<g>
		<g>
			<path class="st0" d="M172.7,106H27.9c-1.6,0-3,1.3-3,3h150.8C175.7,107.3,174.4,106,172.7,106z"/>
		</g>
	</g>
	<g>
		<circle class="st0" cx="140.2" cy="95" r="10.9"/>
		<path class="st1" d="M140.2,102.8c-4.3,0-7.7-3.5-7.7-7.7c0-4.3,3.5-7.7,7.7-7.7c4.3,0,7.7,3.5,7.7,7.7
			C147.9,99.3,144.5,102.8,140.2,102.8L140.2,102.8z"/>
		<path class="st0" d="M140.2,101c-3.3,0-6-2.7-6-6c0-3.3,2.7-6,6-6c3.3,0,6,2.7,6,6C146.2,98.4,143.5,101,140.2,101L140.2,101z"/>
		<path class="st1" d="M140.2,99.4c-2.4,0-4.3-1.9-4.3-4.3c0-2.4,1.9-4.3,4.3-4.3c2.4,0,4.3,1.9,4.3,4.3
			C144.5,97.4,142.6,99.4,140.2,99.4L140.2,99.4z"/>
		<circle class="st0" cx="43.4" cy="95" r="10.9"/>
		<path class="st1" d="M43.4,102.8c-4.3,0-7.7-3.5-7.7-7.7c0-4.3,3.5-7.7,7.7-7.7c4.3,0,7.7,3.5,7.7,7.7
			C51.1,99.3,47.6,102.8,43.4,102.8L43.4,102.8z"/>
		<path class="st0" d="M43.4,101c-3.3,0-6-2.7-6-6c0-3.3,2.7-6,6-6c3.3,0,6,2.7,6,6C49.4,98.4,46.7,101,43.4,101L43.4,101z"/>
		<path class="st1" d="M43.4,99.4C41,99.4,39,97.4,39,95c0-2.4,1.9-4.3,4.3-4.3c2.4,0,4.3,1.9,4.3,4.3
			C47.7,97.4,45.8,99.4,43.4,99.4L43.4,99.4z"/>
		<g>
			<path class="st0" d="M65.9,80.1v-33c0-1.8-1.4-3.2-3.2-3.2H49.5c-15.3,0-18.8,2.4-24.6,21.8c0,0,0,14,0,17.9c0,3.8,1,11.4,1,11.4
				h4.8c0-7,5.7-12.7,12.7-12.7c7,0,12.7,5.7,12.7,12.7h71.5c0-7,5.7-12.7,12.7-12.7c7,0,12.7,5.7,12.7,12.7h6.2
				c8.2,0,16.5-4.4,16.6-14.2c0,0,0-0.1,0-0.1v-0.6H65.9z"/>
		</g>
	</g>
	<path class="st1" d="M49.3,47h-0.4c-13,0-14.5,1.5-20.3,18.1H53V50.7C53,48.7,51.4,47,49.3,47z"/>
	<g>
		<path class="st0" d="M175.7,33.9c0-2-1.7-3.7-3.7-3.7H78.1c-2,0-3.7,1.7-3.7,3.7v43h101.3v-8.8c0-0.1,0-0.2,0-0.3
			c0-0.1,0-0.2,0-0.3V33.9z"/>
	</g>
</g>
</svg>
