<?xml version="1.0" encoding="utf-8"?>
<!-- Generator: Adobe Illustrator 19.0.1, SVG Export Plug-In . SVG Version: 6.00 Build 0)  -->
<svg version="1.1" id="Capa_1" xmlns="http://www.w3.org/2000/svg" xmlns:xlink="http://www.w3.org/1999/xlink" x="0px" y="0px"
	 viewBox="0 0 260 140" style="enable-background:new 0 0 260 140;" xml:space="preserve">
<style type="text/css">
	.st0{fill:#F38F1B;}
	.st1{fill:#FFFFFF;}
</style>
<g>
	<g>
		<g>
			<path class="st0" d="M97.9,80.8V43.9c0-1.8-1.4-3.2-3.2-3.2H75.6c-15.1,0-16.4,1.6-24.4,22.1H26.6c-2,0-3.7,1.7-3.7,3.7v17.8
				c0,1.1,0.1,2.6,0.2,4c0.3,3.6,0.8,7.3,0.8,7.3h4.8c0-7,5.7-12.7,12.7-12.7c7,0,12.7,5.7,12.7,12.7h92.1c0-7,5.7-12.7,12.7-12.7
				c7,0,12.7,5.7,12.7,12.7h5c0-7,5.7-12.7,12.7-12.7c7,0,12.7,5.7,12.7,12.7h20.6c8.2,0,16.5-4.4,16.6-14.2c0,0,0-0.1,0-0.1v-0.6
				H97.9z"/>
		</g>
	</g>
	<g>
		<g>
			<path class="st0" d="M236,106.7h-210c-1.6,0-3,1.3-3,3h216C238.9,108,237.6,106.7,236,106.7z"/>
		</g>
	</g>
	<g>
		<circle class="st0" cx="189.1" cy="95.7" r="10.9"/>
		<path class="st1" d="M189.1,103.5c-4.3,0-7.7-3.5-7.7-7.7c0-4.3,3.5-7.7,7.7-7.7c4.3,0,7.7,3.5,7.7,7.7
			C196.8,100,193.4,103.5,189.1,103.5L189.1,103.5z"/>
		<path class="st0" d="M189.1,101.7c-3.3,0-6-2.7-6-6c0-3.3,2.7-6,6-6c3.3,0,6,2.7,6,6C195.1,99,192.4,101.7,189.1,101.7
			L189.1,101.7z"/>
		<path class="st1" d="M189.1,100.1c-2.4,0-4.3-1.9-4.3-4.3c0-2.4,1.9-4.3,4.3-4.3c2.4,0,4.3,1.9,4.3,4.3
			C193.4,98.1,191.5,100.1,189.1,100.1L189.1,100.1z"/>
		<circle class="st0" cx="41.4" cy="95.7" r="10.9"/>
		<path class="st1" d="M41.4,103.5c-4.3,0-7.7-3.5-7.7-7.7c0-4.3,3.5-7.7,7.7-7.7c4.3,0,7.7,3.5,7.7,7.7
			C49.1,100,45.6,103.5,41.4,103.5L41.4,103.5z"/>
		<path class="st0" d="M41.4,101.7c-3.3,0-6-2.7-6-6c0-3.3,2.7-6,6-6c3.3,0,6,2.7,6,6C47.4,99,44.7,101.7,41.4,101.7L41.4,101.7z"/>
		<path class="st1" d="M41.4,100.1c-2.4,0-4.3-1.9-4.3-4.3c0-2.4,1.9-4.3,4.3-4.3c2.4,0,4.3,1.9,4.3,4.3
			C45.7,98.1,43.7,100.1,41.4,100.1L41.4,100.1z"/>
	</g>
	<g>
		<circle class="st0" cx="158.8" cy="95.7" r="10.9"/>
		<path class="st1" d="M158.8,103.5c-4.3,0-7.7-3.5-7.7-7.7c0-4.3,3.5-7.7,7.7-7.7c4.3,0,7.7,3.5,7.7,7.7
			C166.5,100,163,103.5,158.8,103.5L158.8,103.5z"/>
		<path class="st0" d="M158.8,101.7c-3.3,0-6-2.7-6-6c0-3.3,2.7-6,6-6c3.3,0,6,2.7,6,6C164.8,99,162.1,101.7,158.8,101.7
			L158.8,101.7z"/>
		<path class="st1" d="M158.8,100.1c-2.4,0-4.3-1.9-4.3-4.3c0-2.4,1.9-4.3,4.3-4.3c2.4,0,4.3,1.9,4.3,4.3
			C163.1,98.1,161.1,100.1,158.8,100.1L158.8,100.1z"/>
	</g>
	<g>
		<path class="st0" d="M238.9,34.6c0-2-1.7-3.7-3.7-3.7H108.7c-2,0-3.7,1.7-3.7,3.7v43h134v-8.8c0-0.1,0-0.2,0-0.3
			c0-0.1,0-0.2,0-0.3V34.6z"/>
	</g>
	<g>
		<path class="st1" d="M73.6,44.8L73.6,44.8L73.6,44.8c-11.7,0.1-13.4,2.1-19,18h22.5v-18C77.1,44.8,74.1,44.8,73.6,44.8z"/>
	</g>
	<g>
		<path class="st1" d="M85.2,48.5c0-2-1.7-3.7-3.7-3.7h-1.1v18.1h4.8V48.5z"/>
	</g>
</g>
</svg>
