<?xml version="1.0" encoding="utf-8"?>
<!-- Generator: Adobe Illustrator 19.0.1, SVG Export Plug-In . SVG Version: 6.00 Build 0)  -->
<svg version="1.1" id="Capa_1" xmlns="http://www.w3.org/2000/svg" xmlns:xlink="http://www.w3.org/1999/xlink" x="0px" y="0px"
	 viewBox="0 0 200 140" style="enable-background:new 0 0 200 140;" xml:space="preserve">
<style type="text/css">
	.st0{fill:#F38F1B;}
	.st1{fill:#FFFFFF;}
</style>
<g>
	<g>
		<g>
			<path class="st0" d="M173.1,105.9H28.3c-1.6,0-3,1.3-3,3h150.8C176.1,107.2,174.8,105.9,173.1,105.9z"/>
		</g>
	</g>
	<g>
		<path class="st0" d="M129.7,95c0,6,4.9,10.9,10.9,10.9c6,0,10.9-4.9,10.9-10.9c0-6-4.9-10.9-10.9-10.9
			C134.6,84,129.7,88.9,129.7,95z"/>
		<path class="st1" d="M140.6,102.7c-4.3,0-7.7-3.5-7.7-7.7c0-4.3,3.5-7.7,7.7-7.7c4.3,0,7.7,3.5,7.7,7.7
			C148.4,99.2,144.9,102.7,140.6,102.7L140.6,102.7z"/>
		<path class="st0" d="M140.6,101c-3.3,0-6-2.7-6-6c0-3.3,2.7-6,6-6c3.3,0,6,2.7,6,6C146.6,98.3,143.9,101,140.6,101L140.6,101z"/>
		<path class="st1" d="M140.6,99.3c-2.4,0-4.3-1.9-4.3-4.3c0-2.4,1.9-4.3,4.3-4.3c2.4,0,4.3,1.9,4.3,4.3
			C145,97.4,143,99.3,140.6,99.3L140.6,99.3z"/>
		<circle class="st0" cx="43.8" cy="95" r="10.9"/>
		<path class="st1" d="M43.8,102.7c-4.3,0-7.7-3.5-7.7-7.7c0-4.3,3.5-7.7,7.7-7.7c4.3,0,7.7,3.5,7.7,7.7
			C51.5,99.2,48,102.7,43.8,102.7L43.8,102.7z"/>
		<path class="st0" d="M43.8,101c-3.3,0-6-2.7-6-6c0-3.3,2.7-6,6-6c3.3,0,6,2.7,6,6C49.8,98.3,47.1,101,43.8,101L43.8,101z"/>
		<path class="st1" d="M43.8,99.3c-2.4,0-4.3-1.9-4.3-4.3c0-2.4,1.9-4.3,4.3-4.3c2.4,0,4.3,1.9,4.3,4.3
			C48.1,97.4,46.2,99.3,43.8,99.3L43.8,99.3z"/>
		<g>
			<path class="st0" d="M94.4,80V49c0-1.8-1.4-3.2-3.2-3.2H78.7c-15.3,0-24.2,8.4-37.2,21.4c0,0-6.9,2.9-10.9,6.6
				c-4.7,4.3-5.2,8.5-5.2,12.4c0,3.8,1,8.8,1,8.8h4.8c0-7,5.7-12.7,12.7-12.7c7,0,12.7,5.7,12.7,12.7h71.5c0-7,5.7-12.7,12.7-12.7
				c7,0,12.7,5.7,12.7,12.7h6.2c8.2,0,16.5-4.4,16.6-14.2c0,0,0-0.1,0-0.1V80H94.4z"/>
		</g>
	</g>
	<path class="st1" d="M79.7,48.9h-0.4c-13,0-20,6.5-32.1,18.1h36.2V52.6C83.4,50.6,81.8,48.9,79.7,48.9z"/>
	<g>
		<path class="st0" d="M176.1,33.8c0-2-1.7-3.7-3.7-3.7h-67.8c-2,0-3.7,1.7-3.7,3.7v43h75.2V68c0-0.1,0-0.2,0-0.3c0-0.1,0-0.2,0-0.3
			V33.8z"/>
	</g>
</g>
</svg>
